<?xml version="1.0" encoding="utf-8"?>
<svg viewBox="0 0 24 24" xmlns="http://www.w3.org/2000/svg">
  <path d="M 6.799 3.677 C 8.482 3.677 9.833 4.342 10.854 5.673 C 11.875 7.004 12.385 8.764 12.385 10.953 C 12.385 13.713 11.769 15.885 10.536 17.47 C 9.303 19.054 7.608 19.846 5.452 19.846 C 3.802 19.846 2.459 19.172 1.422 17.825 C 0.385 16.478 -0.134 14.718 -0.134 12.545 C -0.134 9.948 0.515 7.821 1.814 6.163 C 3.112 4.506 4.774 3.677 6.799 3.677 Z M 6.236 17.445 C 6.236 17.445 6.497 17.445 7.02 17.445 C 7.543 17.445 8.012 17.045 8.429 16.245 C 8.845 15.444 9.053 14.023 9.053 11.982 C 9.053 9.94 8.841 8.507 8.416 7.682 C 7.991 6.857 7.248 6.445 6.187 6.445 C 5.125 6.445 4.361 6.833 3.896 7.609 C 3.431 8.384 3.198 9.732 3.198 11.651 C 3.198 13.57 3.443 15.016 3.933 15.988 C 4.423 16.959 5.191 17.445 6.236 17.445 Z M 20.769 19.822 L 17.853 15.485 L 14.84 19.822 L 12.414 18.474 L 16.261 13.501 L 12.61 8.993 L 15.33 7.131 L 18 11.271 L 20.891 7.082 L 23.268 8.552 L 19.617 13.305 L 23.488 17.96 L 20.769 19.822 Z"/>
</svg>
