<?xml version="1.0" encoding="utf-8"?>
<svg viewBox="0 0 24 24" xmlns="http://www.w3.org/2000/svg">
  <defs/>
  <path d="M 1.5899999999999999 4.35 C 2.963333333333333 3.8633333333333333 4.326666666666666 3.62 5.68 3.62 C 7.04 3.62 8.153333333333332 3.9633333333333334 9.02 4.65 C 9.886666666666667 5.336666666666667 10.32 6.203333333333333 10.32 7.25 C 10.32 8.063333333333334 10.106666666666667 8.776666666666667 9.68 9.39 C 9.253333333333332 10.003333333333334 8.649999999999999 10.463333333333333 7.87 10.77 C 9.01 11.196666666666667 9.833333333333334 11.723333333333333 10.34 12.35 C 10.846666666666666 12.983333333333334 11.1 13.780000000000001 11.1 14.74 C 11.1 16.21333333333333 10.533333333333333 17.426666666666666 9.4 18.38 C 8.26 19.333333333333332 6.816666666666666 19.81 5.07 19.81 C 4.236666666666667 19.81 3.4233333333333333 19.7 2.63 19.48 C 1.8433333333333333 19.259999999999998 1.26 19.036666666666665 0.88 18.81 L 0.32 18.47 L 1.35 15.5 C 1.4966666666666668 15.633333333333333 1.6933333333333334 15.796666666666667 1.94 15.99 C 2.1799999999999997 16.189999999999998 2.65 16.456666666666667 3.35 16.79 C 4.043333333333333 17.12333333333333 4.74 17.29 5.44 17.29 C 6.140000000000001 17.29 6.753333333333334 17.096666666666668 7.28 16.71 C 7.800000000000001 16.330000000000002 8.06 15.790000000000001 8.06 15.09 C 8.06 14.383333333333333 7.753333333333334 13.803333333333333 7.14 13.35 C 6.526666666666666 12.89 5.683333333333334 12.66 4.61 12.66 L 2.5 12.66 L 2.94 10.28 L 4.29 10.28 C 5.1899999999999995 10.28 5.8933333333333335 10.076666666666666 6.4 9.67 C 6.9 9.263333333333334 7.15 8.74 7.15 8.1 C 7.15 7.466666666666667 6.94 6.973333333333334 6.52 6.62 C 6.093333333333333 6.266666666666667 5.583333333333333 6.09 4.99 6.09 C 4.39 6.09 3.7766666666666664 6.193333333333333 3.15 6.4 C 2.5233333333333334 6.6066666666666665 1.8333333333333335 6.913333333333333 1.08 7.32 L 1.5899999999999999 4.35 Z"/>
  <path d="M 20.56 19.79 L 17.64 15.45 L 14.63 19.79 L 12.21 18.44 L 16.05 13.47 L 12.4 8.96 L 15.12 7.1 L 17.79 11.24 L 20.68 7.05 L 23.06 8.52 L 19.41 13.27 L 23.28 17.93 L 20.56 19.79 Z"/>
</svg>
