<?xml version="1.0" encoding="utf-8"?>
<svg viewBox="0 0 24 24" xmlns="http://www.w3.org/2000/svg">
  <defs/>
  <path d="M 11.24 14.28 Q 11.24 16.56 9.42 18.18 Q 7.59 19.79 4.97 19.79 Q 3.75 19.79 2.62 19.49 Q 1.49 19.18 0.98 18.89 L 0.46 18.57 L 1.49 15.7 Q 2.25 16.29 3.39 16.78 Q 4.53 17.27 5.52 17.27 Q 6.51 17.27 7.3 16.65 Q 8.08 16.02 8.08 15.11 Q 8.08 12.88 5.09 12.39 L 1.83 11.86 L 1.83 3.75 L 6.05 4.04 L 11.02 3.77 L 10.48 7.15 L 4.19 6.59 L 4.19 9.45 L 6.86 9.92 Q 8.91 10.29 10.08 11.46 Q 11.24 12.64 11.24 14.28 Z M 20.51 19.77 L 17.59 15.43 L 14.58 19.77 L 12.15 18.42 L 16 13.45 L 12.35 8.94 L 15.07 7.08 L 17.74 11.22 L 20.63 7.03 L 23.01 8.5 L 19.36 13.25 L 23.23 17.91 Z"/>
</svg>
