<?xml version="1.0" encoding="utf-8"?>
<svg viewBox="0 0 24 24" xmlns="http://www.w3.org/2000/svg">
  <defs/>
  <path d="M 3.98 10.78 Q 5.5 9.6 7.27 9.6 Q 9.03 9.6 10.22 10.92 Q 11.41 12.25 11.41 14.43 Q 11.41 16.61 9.72 18.2 Q 8.03 19.79 5.66 19.79 Q 3.3 19.79 1.88 18.23 Q 0.45 16.66 0.45 14.11 Q 0.45 11.56 1.91 9.09 Q 3.37 6.61 6.51 3.6 L 9.91 5.04 Q 5.26 8.06 3.98 10.78 Z M 6.19 12.13 Q 4.62 12.13 3.37 12.98 Q 3.32 13.52 3.32 13.82 Q 3.32 15.38 4.08 16.33 Q 4.84 17.27 5.98 17.27 Q 7.12 17.27 7.78 16.58 Q 8.44 15.9 8.44 14.78 Q 8.44 13.67 7.8 12.9 Q 7.17 12.13 6.19 12.13 Z M 20.51 19.77 L 17.59 15.43 L 14.58 19.77 L 12.15 18.42 L 16 13.45 L 12.35 8.94 L 15.07 7.08 L 17.74 11.22 L 20.63 7.03 L 23.01 8.5 L 19.36 13.25 L 23.23 17.91 Z"/>
</svg>
