<?xml version="1.0" encoding="utf-8"?>
<svg viewBox="0 0 24 24" xmlns="http://www.w3.org/2000/svg">
  <defs/>
  <path d="M -0.1 15.73 Q -0.1 14.43 0.81 13.48 Q 1.71 12.54 2.82 11.98 Q 0.46 10.58 0.46 8.46 Q 0.46 6.34 1.98 4.97 Q 3.5 3.6 5.58 3.6 Q 7.67 3.6 8.98 4.6 Q 10.29 5.61 10.29 7.1 Q 10.29 9.04 7.99 10.9 Q 9.46 11.59 10.3 12.49 Q 11.15 13.4 11.15 14.77 Q 11.15 16.83 9.39 18.31 Q 7.64 19.79 5.33 19.79 Q 3.01 19.79 1.46 18.59 Q -0.1 17.39 -0.1 15.73 Z M 7.54 14.17 Q 7.54 14.17 7.09 13.91 Q 6.64 13.64 5.61 13.24 Q 4.58 12.84 4.21 12.66 Q 2.62 13.72 2.62 14.8 Q 2.62 15.87 3.48 16.54 Q 4.34 17.2 5.62 17.2 Q 6.91 17.2 7.68 16.72 Q 8.45 16.24 8.45 15.47 Q 8.45 14.7 7.54 14.17 Z M 3.16 7.68 Q 3.16 7.68 3.16 8 Q 3.16 8.33 3.55 8.67 Q 3.94 9.01 4.16 9.17 Q 4.38 9.33 4.9 9.58 Q 5.81 9.99 6.52 10.26 Q 7.64 8.84 7.64 8 Q 7.64 7.15 6.99 6.65 Q 6.34 6.15 5.35 6.15 Q 4.36 6.15 3.76 6.59 Q 3.16 7.03 3.16 7.68 Z M 20.51 19.77 L 17.59 15.43 L 14.58 19.77 L 12.15 18.42 L 16 13.45 L 12.35 8.94 L 15.07 7.08 L 17.74 11.22 L 20.63 7.03 L 23.01 8.5 L 19.36 13.25 L 23.23 17.91 Z"/>
</svg>
