<?xml version="1.0" encoding="utf-8"?>
<svg viewBox="0 0 24 24" xmlns="http://www.w3.org/2000/svg">
  <defs/>
  <path d="M 7.82 12.65 Q 6.35 13.83 4.56 13.83 Q 2.77 13.83 1.59 12.5 Q 0.4 11.18 0.4 9 Q 0.4 6.82 2.09 5.23 Q 3.78 3.63 6.14 3.63 Q 8.51 3.63 9.93 5.2 Q 11.35 6.77 11.35 9.32 Q 11.35 11.87 9.89 14.34 Q 8.43 16.82 5.3 19.83 L 1.89 18.38 Q 6.52 15.37 7.82 12.65 Z M 5.62 11.3 Q 7.21 11.3 8.43 10.45 Q 8.48 9.91 8.48 9.61 Q 8.48 8.04 7.72 7.1 Q 6.96 6.16 5.82 6.16 Q 4.69 6.16 4.02 6.84 Q 3.36 7.53 3.36 8.65 Q 3.36 9.76 4 10.53 Q 4.64 11.3 5.62 11.3 Z M 20.74 19.8 L 17.83 15.47 L 14.81 19.8 L 12.39 18.46 L 16.24 13.48 L 12.59 8.98 L 15.3 7.11 L 17.98 11.25 L 20.87 7.06 L 23.24 8.53 L 19.59 13.29 L 23.46 17.94 Z"/>
</svg>
