<?xml version="1.0" encoding="utf-8"?>
<svg viewBox="0 0 24 24" xmlns="http://www.w3.org/2000/svg">
  <path d="M 22.791 8.661 L 20.12 4.115 C 19.825 3.612 19.171 3.441 18.661 3.73 L 16.346 5.041 L 18.349 8.453 C 18.422 8.58 18.379 8.739 18.251 8.812 L 17.789 9.074 C 17.661 9.148 17.496 9.104 17.423 8.977 L 15.42 5.568 L 13.568 6.618 L 15.257 9.45 C 15.331 9.578 15.287 9.735 15.16 9.81 L 14.697 10.071 C 14.569 10.145 14.405 10.101 14.331 9.973 L 12.642 7.145 L 10.79 8.195 L 12.796 11.607 C 12.87 11.731 12.826 11.892 12.699 11.966 L 12.236 12.228 C 12.109 12.301 11.944 12.258 11.87 12.13 L 9.867 8.718 L 8.015 9.768 L 9.619 12.607 C 9.693 12.734 9.649 12.892 9.522 12.966 L 9.059 13.227 C 8.932 13.301 8.767 13.257 8.693 13.13 L 7.089 10.289 L 5.237 11.338 L 7.24 14.751 C 7.314 14.874 7.27 15.036 7.143 15.109 L 6.68 15.371 C 6.553 15.445 6.388 15.401 6.314 15.274 L 4.312 11.872 L 1.997 13.184 C 1.487 13.475 1.309 14.116 1.604 14.62 L 4.274 19.169 C 4.57 19.672 5.224 19.843 5.734 19.555 L 22.402 10.097 C 22.911 9.808 23.086 9.164 22.791 8.661 Z" style="" transform="matrix(0.941467165947, -0.33710500598, 0.33710500598, 0.941467165947, -3.210663989387, 4.793428312227)"/>
</svg>
