<?xml version="1.0" encoding="utf-8"?>
<svg viewBox="0 0 24 24" width="24px" height="24px" xmlns="http://www.w3.org/2000/svg" xmlns:bx="https://boxy-svg.com"><defs><bx:export><bx:file format="svg" path="Emanations.svg"/></bx:export></defs><title>Emanations</title><path d="M 31.443 0.968 L 31.443 -1.771 L 34.877 -2.08 L 34.877 0.968 L 37.731 0.968 L 37.445 4.231 L 34.877 4.231 L 34.877 6.951 L 31.443 7.26 L 31.443 4.231 L 28.606 4.231 L 28.894 0.968 L 31.443 0.968 Z" style="fill: rgb(255, 0, 0);"/><ellipse style="stroke: rgb(0, 0, 0); stroke-width: 0px; fill: rgb(255, 0, 0);" cx="36.329" cy="-6.531" rx="4.906" ry="4.906"/><path d="M 32.205 1.732 L 32.205 -1.073 L 34.112 -1.244 L 34.112 1.732 L 36.897 1.732 L 36.746 3.467 L 34.112 3.467 L 34.112 6.253 L 32.205 6.425 L 32.205 3.467 L 29.439 3.467 L 29.591 1.732 L 32.205 1.732 Z" style=""/><ellipse style="stroke: rgb(0, 0, 0); stroke-width: 0px;" cx="-16.413" cy="16.558" rx="11.604" ry="3.727"/><ellipse style="stroke: rgb(0, 0, 0); stroke-width: 0px; fill: rgb(255, 255, 255);" cx="-16.413" cy="15.915" rx="7.797" ry="1.69"/><path style="stroke: none; fill: rgb(0, 255, 0);" d="M 42.449 4.758 C 44.452 4.838 45.04 5.105 45.78 5.45 L 45.794 5.458 L 45.798 5.46 C 46.359 5.813 46.804 6.575 46.981 7.16 C 47.137 7.735 47.198 8.352 47.202 8.586 C 47.209 9.297 47.244 10.029 47.244 10.778 C 47.244 11.449 47.227 12.032 47.201 12.783 C 47.195 12.905 47.198 13.362 47.092 13.769 L 47.091 13.772 L 47.09 13.774 L 47.089 13.777 L 47.089 13.779 L 47.088 13.782 L 47.087 13.785 C 46.999 14.012 45.79 14.812 45.434 14.803 L 45.41 14.8 L 45.4 14.798 C 45.08 14.729 44.849 14.983 44.84 15.586 C 44.82 16.795 44.82 18.309 44.82 19.374 C 44.82 19.693 44.8 20.257 44.641 20.702 L 44.633 20.72 L 44.63 20.726 C 44.501 20.966 43.199 21.244 42.81 21.247 C 42.487 21.22 40.551 21.293 40.21 21.29 L 40.208 21.29 L 40.205 21.289 L 40.203 21.289 L 40.198 21.289 L 40.196 21.289 L 40.193 21.289 L 40.19 21.289 L 40.189 21.288 L 40.184 21.288 L 40.181 21.287 L 40.176 21.287 L 40.174 21.286 C 39.37 21.162 38.749 21.08 38.524 20.676 L 38.514 20.652 L 38.509 20.643 C 38.358 20.207 38.355 19.76 38.352 19.655 C 38.346 19.171 38.352 18.694 38.352 18.229 C 38.352 17.191 38.369 16.059 38.35 15.237 C 38.347 15.025 38.124 14.794 37.852 14.84 C 37.348 14.887 35.936 12.47 35.882 11.829 C 35.807 10.825 35.876 9.846 35.879 8.935 C 35.881 8.424 35.871 7.774 35.999 7.168 C 36.165 6.552 36.632 5.823 37.324 5.324 L 37.327 5.323 L 37.328 5.321 L 37.33 5.319 L 37.332 5.319 C 37.928 4.983 39.093 4.815 40.083 4.772 C 40.576 4.752 41.07 4.748 41.48 4.752 C 41.687 4.752 41.875 4.754 42.035 4.755 C 42.115 4.756 42.186 4.757 42.251 4.758 C 42.315 4.758 42.427 4.758 42.427 4.758"/><g><path style="fill: rgb(25, 27, 25); stroke: none; transform-origin: 41.497px 2.989px;" d="M 41.043 0.877 C 39.261 1.242 38.771 3.551 40.189 4.733 C 41.082 5.478 42.573 5.169 43.293 4.11 C 44.317 2.601 42.858 0.505 41.043 0.877" transform="matrix(0.976529, 0.215385, -0.215385, 0.976529, 0, 0)"/><path style="fill: rgb(25, 27, 25); stroke: none;" d="M 42.391 5.581 C 44.218 5.617 44.603 5.826 45.35 6.174 C 46.133 6.541 46.307 8.16 46.311 8.559 C 46.319 9.287 46.356 10.014 46.356 10.744 C 46.356 11.399 46.337 11.962 46.311 12.713 C 46.301 13.029 46.424 13.999 45.494 13.913 C 44.696 13.839 44.552 13.236 44.526 12.348 C 44.499 11.474 44.458 10.972 44.446 10.315 C 44.443 10.059 44.536 9.765 44.402 9.546 C 44.329 9.427 44.054 9.428 43.977 9.546 C 43.845 9.751 43.937 10.03 43.933 10.273 C 43.923 10.857 43.933 11.442 43.933 12.028 C 43.933 14.154 43.93 17.212 43.93 19.338 C 43.93 19.988 44.026 20.807 42.824 20.784 C 42 20.767 41.97 19.973 41.967 19.502 C 41.965 18.559 41.837 17.039 41.836 16.095 C 41.835 15.667 41.907 15.232 41.83 14.811 C 41.803 14.656 41.693 14.455 41.536 14.442 C 41.399 14.432 41.306 14.634 41.281 14.768 C 41.202 15.19 41.242 15.623 41.237 16.053 C 41.227 17.052 41.187 18.649 41.203 19.648 C 41.211 20.152 41.243 20.871 40.233 20.827 C 39.086 20.779 39.185 19.864 39.18 19.606 C 39.173 19.136 39.18 18.665 39.18 18.194 C 39.18 16.124 39.18 14.054 39.18 11.986 C 39.18 11.414 39.192 10.843 39.18 10.273 C 39.175 10.031 39.268 9.747 39.131 9.548 C 39.042 9.424 38.758 9.42 38.674 9.546 C 38.533 9.76 38.629 10.059 38.624 10.315 C 38.612 10.972 38.628 11.628 38.624 12.284 C 38.622 12.626 38.625 13.532 38.388 13.779 C 38.042 14.139 37.562 14.108 37.188 13.779 C 36.665 13.32 36.762 12.423 36.706 11.728 C 36.632 10.789 36.704 9.844 36.706 8.902 C 36.71 7.852 36.609 6.753 37.743 6.019 C 38.605 5.463 41.586 5.587 42.391 5.581"/></g><path d="M 53.15 20.614 C 53.15 22.671 47.953 24.34 41.545 24.34 C 35.137 24.34 29.94 22.671 29.94 20.614 C 29.94 18.557 35.137 16.889 41.545 16.889 C 47.953 16.889 53.15 18.557 53.15 20.614 Z M 41.545 18.281 C 37.239 18.281 33.747 19.037 33.747 19.97 C 33.747 20.903 37.239 21.66 41.545 21.66 C 45.851 21.66 49.342 20.903 49.342 19.97 C 49.342 19.037 45.851 18.281 41.545 18.281 Z" style="stroke: rgb(0, 0, 0); stroke-width: 0px;"/><g transform="matrix(0.176248, 0, 0, 0.176248, 32.277676, -10.581869)" style=""><title>Edit Emanations</title><g><path d="M43.454,18.443h-2.437c-0.453-1.766-1.16-3.42-2.082-4.933l1.752-1.756c0.473-0.473,0.733-1.104,0.733-1.774 c0-0.669-0.262-1.301-0.733-1.773l-2.92-2.917c-0.947-0.948-2.602-0.947-3.545-0.001l-1.826,1.815 C30.9,6.232,29.296,5.56,27.529,5.128V2.52c0-1.383-1.105-2.52-2.488-2.52h-4.128c-1.383,0-2.471,1.137-2.471,2.52v2.607 c-1.766,0.431-3.38,1.104-4.878,1.977l-1.825-1.815c-0.946-0.948-2.602-0.947-3.551-0.001L5.27,8.205 C4.802,8.672,4.535,9.318,4.535,9.978c0,0.669,0.259,1.299,0.733,1.772l1.752,1.76c-0.921,1.513-1.629,3.167-2.081,4.933H2.501 C1.117,18.443,0,19.555,0,20.935v4.125c0,1.384,1.117,2.471,2.501,2.471h2.438c0.452,1.766,1.159,3.43,2.079,4.943l-1.752,1.763 c-0.474,0.473-0.734,1.106-0.734,1.776s0.261,1.303,0.734,1.776l2.92,2.919c0.474,0.473,1.103,0.733,1.772,0.733 s1.299-0.261,1.773-0.733l1.833-1.816c1.498,0.873,3.112,1.545,4.878,1.978v2.604c0,1.383,1.088,2.498,2.471,2.498h4.128 c1.383,0,2.488-1.115,2.488-2.498v-2.605c1.767-0.432,3.371-1.104,4.869-1.977l1.817,1.812c0.474,0.475,1.104,0.735,1.775,0.735 c0.67,0,1.301-0.261,1.774-0.733l2.92-2.917c0.473-0.472,0.732-1.103,0.734-1.772c0-0.67-0.262-1.299-0.734-1.773l-1.75-1.77 c0.92-1.514,1.627-3.179,2.08-4.943h2.438c1.383,0,2.52-1.087,2.52-2.471v-4.125C45.973,19.555,44.837,18.443,43.454,18.443z M22.976,30.85c-4.378,0-7.928-3.517-7.928-7.852c0-4.338,3.55-7.85,7.928-7.85c4.379,0,7.931,3.512,7.931,7.85 C30.906,27.334,27.355,30.85,22.976,30.85z"/></g></g><path style="fill: rgb(25, 27, 25); stroke: none; transform-origin: 11.953px 2.24px;" d="M 11.499 0.128 C 9.717 0.493 9.227 2.802 10.645 3.984 C 11.538 4.729 13.029 4.42 13.749 3.361 C 14.773 1.852 13.314 -0.244 11.499 0.128" transform="matrix(0.976529, 0.215385, -0.215385, 0.976529, 0, 0)"/><path style="fill: rgb(25, 27, 25); stroke: none;" d="M 12.847 5.186 C 13.655 5.202 14.181 5.252 14.582 5.332 C 14.878 6.621 15.681 7.716 16.77 8.395 C 16.782 9.046 16.812 9.696 16.812 10.349 C 16.812 11.004 16.793 11.567 16.767 12.318 C 16.757 12.634 16.88 13.604 15.95 13.518 C 15.152 13.444 15.008 12.841 14.982 11.953 C 14.955 11.079 14.914 10.577 14.902 9.92 C 14.899 9.664 14.992 9.37 14.858 9.151 C 14.785 9.032 14.51 9.033 14.433 9.151 C 14.301 9.356 14.393 9.635 14.389 9.878 C 14.379 10.462 14.389 11.047 14.389 11.633 C 14.389 13.759 14.386 16.817 14.386 18.943 C 14.386 19.593 14.482 20.412 13.28 20.389 C 12.456 20.372 12.426 19.578 12.423 19.107 C 12.421 18.164 12.293 16.644 12.292 15.7 C 12.291 15.272 12.363 14.837 12.286 14.416 C 12.259 14.261 12.149 14.06 11.992 14.047 C 11.855 14.037 11.762 14.239 11.737 14.373 C 11.658 14.795 11.698 15.228 11.693 15.658 C 11.683 16.657 11.643 18.254 11.659 19.253 C 11.667 19.757 11.699 20.476 10.689 20.432 C 9.542 20.384 9.641 19.469 9.636 19.211 C 9.629 18.741 9.636 18.27 9.636 17.799 C 9.636 15.729 9.636 13.659 9.636 11.591 C 9.636 11.019 9.648 10.448 9.636 9.878 C 9.631 9.636 9.724 9.352 9.587 9.153 C 9.498 9.029 9.214 9.025 9.13 9.151 C 8.989 9.365 9.085 9.664 9.08 9.92 C 9.068 10.577 9.084 11.233 9.08 11.889 C 9.078 12.231 9.081 13.137 8.844 13.384 C 8.498 13.744 8.018 13.713 7.644 13.384 C 7.121 12.925 7.218 12.028 7.162 11.333 C 7.088 10.394 7.16 9.449 7.162 8.507 C 7.166 7.457 7.065 6.358 8.199 5.624 C 9.061 5.068 12.042 5.192 12.847 5.186 Z"/><path d="M 23.605 20.232 C 23.605 22.289 18.408 23.958 12 23.958 C 5.592 23.958 0.395 22.289 0.395 20.232 C 0.395 18.53 3.953 17.094 8.811 16.649 C 8.809 17.047 8.807 17.454 8.807 17.847 C 8.807 17.913 8.807 17.98 8.807 18.047 C 6.092 18.311 4.202 18.902 4.202 19.588 C 4.202 20.521 7.694 21.278 12 21.278 C 16.306 21.278 19.797 20.521 19.797 19.588 C 19.797 18.908 17.945 18.323 15.275 18.055 C 15.276 17.609 15.277 17.132 15.28 16.658 C 20.091 17.112 23.605 18.541 23.605 20.232 Z" style="stroke: rgb(0, 0, 0); stroke-width: 0px;"/><g transform="matrix(0.176248, 0, 0, 0.176248, 15.311867, 0.178065)" style=""><title>Edit Emanations</title><g><path d="M43.454,18.443h-2.437c-0.453-1.766-1.16-3.42-2.082-4.933l1.752-1.756c0.473-0.473,0.733-1.104,0.733-1.774 c0-0.669-0.262-1.301-0.733-1.773l-2.92-2.917c-0.947-0.948-2.602-0.947-3.545-0.001l-1.826,1.815 C30.9,6.232,29.296,5.56,27.529,5.128V2.52c0-1.383-1.105-2.52-2.488-2.52h-4.128c-1.383,0-2.471,1.137-2.471,2.52v2.607 c-1.766,0.431-3.38,1.104-4.878,1.977l-1.825-1.815c-0.946-0.948-2.602-0.947-3.551-0.001L5.27,8.205 C4.802,8.672,4.535,9.318,4.535,9.978c0,0.669,0.259,1.299,0.733,1.772l1.752,1.76c-0.921,1.513-1.629,3.167-2.081,4.933H2.501 C1.117,18.443,0,19.555,0,20.935v4.125c0,1.384,1.117,2.471,2.501,2.471h2.438c0.452,1.766,1.159,3.43,2.079,4.943l-1.752,1.763 c-0.474,0.473-0.734,1.106-0.734,1.776s0.261,1.303,0.734,1.776l2.92,2.919c0.474,0.473,1.103,0.733,1.772,0.733 s1.299-0.261,1.773-0.733l1.833-1.816c1.498,0.873,3.112,1.545,4.878,1.978v2.604c0,1.383,1.088,2.498,2.471,2.498h4.128 c1.383,0,2.488-1.115,2.488-2.498v-2.605c1.767-0.432,3.371-1.104,4.869-1.977l1.817,1.812c0.474,0.475,1.104,0.735,1.775,0.735 c0.67,0,1.301-0.261,1.774-0.733l2.92-2.917c0.473-0.472,0.732-1.103,0.734-1.772c0-0.67-0.262-1.299-0.734-1.773l-1.75-1.77 c0.92-1.514,1.627-3.179,2.08-4.943h2.438c1.383,0,2.52-1.087,2.52-2.471v-4.125C45.973,19.555,44.837,18.443,43.454,18.443z M22.976,30.85c-4.378,0-7.928-3.517-7.928-7.852c0-4.338,3.55-7.85,7.928-7.85c4.379,0,7.931,3.512,7.931,7.85 C30.906,27.334,27.355,30.85,22.976,30.85z"/></g></g></svg>