<?xml version="1.0" encoding="UTF-8" standalone="no"?>
<svg
   viewBox="0 0 24 24"
   width="24px"
   height="24px"
   version="1.1"
   id="svg10"
   xmlns="http://www.w3.org/2000/svg"
   xmlns:svg="http://www.w3.org/2000/svg">
  <defs
     id="defs1">
  </defs>
  <title
     id="title1">Add</title>
  <path
     d="M 18.66 3.326 L 18.66 0.521 L 20.567 0.35 L 20.567 3.326 L 23.352 3.326 L 23.201 5.061 L 20.567 5.061 L 20.567 7.847 L 18.66 8.019 L 18.66 5.061 L 15.894 5.061 L 16.046 3.326 L 18.66 3.326 Z"
     id="path2"
     style="" />
  <path
     style="fill:#000000;stroke:none;fill-opacity:1"
     d="m 11.929773,0.51182831 c -1.81879,-0.027383 -2.7946132,2.12188389 -1.66448,3.58155709 0.711578,0.9198529 2.234137,0.9392445 3.165331,0.060177 1.324981,-1.253028 0.351672,-3.6140796 -1.500851,-3.64173459"
     id="path8" />
  <path
     style="fill:#000000;stroke:none;fill-opacity:1"
     d="M 12.847 5.186 C 14.674 5.222 15.059 5.431 15.806 5.779 C 16.589 6.146 16.763 7.765 16.767 8.164 C 16.775 8.892 16.812 9.619 16.812 10.349 C 16.812 11.004 16.793 11.567 16.767 12.318 C 16.757 12.634 16.88 13.604 15.95 13.518 C 15.152 13.444 15.008 12.841 14.982 11.953 C 14.955 11.079 14.914 10.577 14.902 9.92 C 14.899 9.664 14.992 9.37 14.858 9.151 C 14.785 9.032 14.51 9.033 14.433 9.151 C 14.301 9.356 14.393 9.635 14.389 9.878 C 14.379 10.462 14.389 11.047 14.389 11.633 C 14.389 13.759 14.386 16.817 14.386 18.943 C 14.386 19.593 14.482 20.412 13.28 20.389 C 12.456 20.372 12.426 19.578 12.423 19.107 C 12.421 18.164 12.293 16.644 12.292 15.7 C 12.291 15.272 12.363 14.837 12.286 14.416 C 12.259 14.261 12.149 14.06 11.992 14.047 C 11.855 14.037 11.762 14.239 11.737 14.373 C 11.658 14.795 11.698 15.228 11.693 15.658 C 11.683 16.657 11.643 18.254 11.659 19.253 C 11.667 19.757 11.699 20.476 10.689 20.432 C 9.542 20.384 9.641 19.469 9.636 19.211 C 9.629 18.741 9.636 18.27 9.636 17.799 C 9.636 15.729 9.636 13.659 9.636 11.591 C 9.636 11.019 9.648 10.448 9.636 9.878 C 9.631 9.636 9.724 9.352 9.587 9.153 C 9.498 9.029 9.214 9.025 9.13 9.151 C 8.989 9.365 9.085 9.664 9.08 9.92 C 9.068 10.577 9.084 11.233 9.08 11.889 C 9.078 12.231 9.081 13.137 8.844 13.384 C 8.498 13.744 8.018 13.713 7.644 13.384 C 7.121 12.925 7.218 12.028 7.162 11.333 C 7.088 10.394 7.16 9.449 7.162 8.507 C 7.166 7.457 7.065 6.358 8.199 5.624 C 9.061 5.068 12.042 5.192 12.847 5.186"
     id="path9" />
  <path
     d="M 23.605 20.232 C 23.605 22.289 18.408 23.958 12 23.958 C 5.592 23.958 0.395 22.289 0.395 20.232 C 0.395 18.53 3.953 17.094 8.811 16.649 C 8.809 17.047 8.807 17.454 8.807 17.847 C 8.807 17.913 8.807 17.98 8.807 18.047 C 6.092 18.311 4.202 18.902 4.202 19.588 C 4.202 20.521 7.694 21.278 12 21.278 C 16.306 21.278 19.797 20.521 19.797 19.588 C 19.797 18.908 17.945 18.323 15.275 18.055 C 15.276 17.609 15.277 17.132 15.28 16.658 C 20.091 17.112 23.605 18.541 23.605 20.232 Z"
     style="stroke: rgb(0, 0, 0); stroke-width: 0px;"
     id="path10" />
</svg>
