<?xml version="1.0" encoding="UTF-8" standalone="no"?>
<svg
   viewBox="0 0 24 24"
   width="24px"
   height="24px"
   version="1.1"
   id="svg12"
   xmlns="http://www.w3.org/2000/svg"
   xmlns:svg="http://www.w3.org/2000/svg">
  
  <defs
     id="defs1">
  </defs>
  <title
     id="title1">Edit</title>
  <path
     style="fill:#010101;fill-opacity:1;stroke:none"
     d="m 11.929484,0.67478981 c -1.81879,-0.027383 -2.7946129,2.12188379 -1.66448,3.58155699 0.711579,0.919853 2.234137,0.9392445 3.165331,0.060177 1.324982,-1.253028 0.351673,-3.6140795 -1.500851,-3.64173449"
     id="path8" />
  <path
     style="fill:#010101;stroke:none;fill-opacity:1"
     d="M 12.847 5.186 C 13.655 5.202 14.181 5.252 14.582 5.332 C 14.878 6.621 15.681 7.716 16.77 8.395 C 16.782 9.046 16.812 9.696 16.812 10.349 C 16.812 11.004 16.793 11.567 16.767 12.318 C 16.757 12.634 16.88 13.604 15.95 13.518 C 15.152 13.444 15.008 12.841 14.982 11.953 C 14.955 11.079 14.914 10.577 14.902 9.92 C 14.899 9.664 14.992 9.37 14.858 9.151 C 14.785 9.032 14.51 9.033 14.433 9.151 C 14.301 9.356 14.393 9.635 14.389 9.878 C 14.379 10.462 14.389 11.047 14.389 11.633 C 14.389 13.759 14.386 16.817 14.386 18.943 C 14.386 19.593 14.482 20.412 13.28 20.389 C 12.456 20.372 12.426 19.578 12.423 19.107 C 12.421 18.164 12.293 16.644 12.292 15.7 C 12.291 15.272 12.363 14.837 12.286 14.416 C 12.259 14.261 12.149 14.06 11.992 14.047 C 11.855 14.037 11.762 14.239 11.737 14.373 C 11.658 14.795 11.698 15.228 11.693 15.658 C 11.683 16.657 11.643 18.254 11.659 19.253 C 11.667 19.757 11.699 20.476 10.689 20.432 C 9.542 20.384 9.641 19.469 9.636 19.211 C 9.629 18.741 9.636 18.27 9.636 17.799 C 9.636 15.729 9.636 13.659 9.636 11.591 C 9.636 11.019 9.648 10.448 9.636 9.878 C 9.631 9.636 9.724 9.352 9.587 9.153 C 9.498 9.029 9.214 9.025 9.13 9.151 C 8.989 9.365 9.085 9.664 9.08 9.92 C 9.068 10.577 9.084 11.233 9.08 11.889 C 9.078 12.231 9.081 13.137 8.844 13.384 C 8.498 13.744 8.018 13.713 7.644 13.384 C 7.121 12.925 7.218 12.028 7.162 11.333 C 7.088 10.394 7.16 9.449 7.162 8.507 C 7.166 7.457 7.065 6.358 8.199 5.624 C 9.061 5.068 12.042 5.192 12.847 5.186 Z"
     id="path9" />
  <path
     d="M 23.605 20.232 C 23.605 22.289 18.408 23.958 12 23.958 C 5.592 23.958 0.395 22.289 0.395 20.232 C 0.395 18.53 3.953 17.094 8.811 16.649 C 8.809 17.047 8.807 17.454 8.807 17.847 C 8.807 17.913 8.807 17.98 8.807 18.047 C 6.092 18.311 4.202 18.902 4.202 19.588 C 4.202 20.521 7.694 21.278 12 21.278 C 16.306 21.278 19.797 20.521 19.797 19.588 C 19.797 18.908 17.945 18.323 15.275 18.055 C 15.276 17.609 15.277 17.132 15.28 16.658 C 20.091 17.112 23.605 18.541 23.605 20.232 Z"
     style="stroke: rgb(0, 0, 0); stroke-width: 0px;"
     id="path10" />
  <g
     transform="matrix(0.176248, 0, 0, 0.176248, 15.311867, 0.178065)"
     style=""
     id="g12">
    <g
       id="g11">
      <path
         d="M43.454,18.443h-2.437c-0.453-1.766-1.16-3.42-2.082-4.933l1.752-1.756c0.473-0.473,0.733-1.104,0.733-1.774 c0-0.669-0.262-1.301-0.733-1.773l-2.92-2.917c-0.947-0.948-2.602-0.947-3.545-0.001l-1.826,1.815 C30.9,6.232,29.296,5.56,27.529,5.128V2.52c0-1.383-1.105-2.52-2.488-2.52h-4.128c-1.383,0-2.471,1.137-2.471,2.52v2.607 c-1.766,0.431-3.38,1.104-4.878,1.977l-1.825-1.815c-0.946-0.948-2.602-0.947-3.551-0.001L5.27,8.205 C4.802,8.672,4.535,9.318,4.535,9.978c0,0.669,0.259,1.299,0.733,1.772l1.752,1.76c-0.921,1.513-1.629,3.167-2.081,4.933H2.501 C1.117,18.443,0,19.555,0,20.935v4.125c0,1.384,1.117,2.471,2.501,2.471h2.438c0.452,1.766,1.159,3.43,2.079,4.943l-1.752,1.763 c-0.474,0.473-0.734,1.106-0.734,1.776s0.261,1.303,0.734,1.776l2.92,2.919c0.474,0.473,1.103,0.733,1.772,0.733 s1.299-0.261,1.773-0.733l1.833-1.816c1.498,0.873,3.112,1.545,4.878,1.978v2.604c0,1.383,1.088,2.498,2.471,2.498h4.128 c1.383,0,2.488-1.115,2.488-2.498v-2.605c1.767-0.432,3.371-1.104,4.869-1.977l1.817,1.812c0.474,0.475,1.104,0.735,1.775,0.735 c0.67,0,1.301-0.261,1.774-0.733l2.92-2.917c0.473-0.472,0.732-1.103,0.734-1.772c0-0.67-0.262-1.299-0.734-1.773l-1.75-1.77 c0.92-1.514,1.627-3.179,2.08-4.943h2.438c1.383,0,2.52-1.087,2.52-2.471v-4.125C45.973,19.555,44.837,18.443,43.454,18.443z M22.976,30.85c-4.378,0-7.928-3.517-7.928-7.852c0-4.338,3.55-7.85,7.928-7.85c4.379,0,7.931,3.512,7.931,7.85 C30.906,27.334,27.355,30.85,22.976,30.85z"
         id="path11" />
    </g>
  </g>
</svg>
