<?xml version="1.0" encoding="utf-8"?>
<svg viewBox="0 0 24 24" xmlns="http://www.w3.org/2000/svg">
  <defs/>
  <path d="M 7.54 8.2 C 7.54 7.306666666666667 6.996666666666667 6.86 5.91 6.86 C 5.236666666666667 6.86 4.496666666666667 7 3.69 7.28 C 2.8833333333333333 7.5600000000000005 2.24 7.843333333333334 1.76 8.13 L 1.06 8.54 L 1.71 5.1 C 2.33 4.766666666666667 3.08 4.466666666666667 3.96 4.2 C 4.84 3.94 5.616666666666667 3.81 6.29 3.81 C 7.65 3.81 8.743333333333334 4.156666666666666 9.57 4.85 C 10.39 5.55 10.8 6.473333333333334 10.8 7.62 C 10.8 9.173333333333332 9.986666666666666 10.79 8.36 12.47 L 4.18 16.79 L 11.67 16.36 L 11.26 19.55 L 6.27 19.34 L 0.6 19.5 L 0.99 16.98 L 6.03 11.18 C 7.036666666666667 10.040000000000001 7.54 9.046666666666667 7.54 8.2 Z"/>
  <path d="M 20.73 19.65 L 17.88 15.4 L 14.93 19.65 L 12.55 18.33 L 16.32 13.46 L 12.74 9.04 L 15.41 7.22 L 18.02 11.27 L 20.85 7.17 L 23.18 8.61 L 19.61 13.26 L 23.4 17.82 L 20.73 19.65 Z"/>
</svg>
