<?xml version="1.0" encoding="utf-8"?>
<svg viewBox="0 0 24 24" xmlns="http://www.w3.org/2000/svg">
  <defs/>
  <polyline style="fill: rgb(216, 216, 216); stroke: rgb(0, 0, 0); stroke-linecap: round; stroke-width: 2px; transform-origin: 7.747px 5.324px;" points="2.123 2.666 13.371 7.982" transform="matrix(0.987733006477, -0.156151980162, 0.156151980162, 0.987733006477, -7.1201e-8, 3.4105e-8)"/>
  <polygon style="stroke: rgb(0, 0, 0); stroke-width: 0px; transform-origin: 14.6935px 7.088px;" points="15.157 4.061 12.262 10.115 17.125 8.526" transform="matrix(0.987733006477, -0.156151980162, 0.156151980162, 0.987733006477, -1.65861e-7, 2.78273e-7)"/>
  <path d="M 22.88 5.92 L 22.68 11.14 L 22.84 14.63 L 20.96 14.63 L 21.12 11.37 L 21.02 8.03 L 19.14 8.05 L 19.14 7.18 Z"/>
  <polyline style="fill: rgb(216, 216, 216); stroke: rgb(0, 0, 0); stroke-linecap: round; stroke-width: 2px; transform-origin: 14.52px 14.9865px;" points="10.634 16.645 18.406 13.328" transform="matrix(-0.993056118488, -0.117644011974, 0.117644011974, -0.993056118488, 0.000005620437, 0.00000530069)"/>
  <polygon style="stroke: rgb(0, 0, 0); stroke-width: 0px; transform-origin: 9.4925px 16.2325px;" points="9.956 19.259 7.061 13.206 11.924 14.795" transform="matrix(-0.993056118488, -0.117644011974, 0.117644011974, -0.993056118488, -0.000001586352, -0.00000228723)"/>
  <path d="M 5 14.64 Q 5 13.9 4.09 13.9 Q 3.53 13.9 2.86 14.13 Q 2.19 14.36 1.79 14.6 L 1.41 14.83 L 1.77 12.93 Q 2.28 12.65 3.02 12.43 Q 3.75 12.21 4.31 12.21 Q 5.44 12.21 6.12 12.79 Q 6.81 13.37 6.81 14.32 Q 6.81 15.61 5.45 17.01 L 3.14 19.4 L 7.28 19.16 L 7.06 20.93 L 4.29 20.81 L 1.15 20.91 L 1.37 19.51 L 4.16 16.29 Q 5 15.35 5 14.64 Z"/>
</svg>
