<?xml version="1.0" encoding="utf-8"?>
<svg viewBox="0 0 24 24" xmlns="http://www.w3.org/2000/svg">
  <path style="fill: rgb(2, 2, 2); stroke: none;" d="M 5.928 5.149 C 4.748 5.335 4.078 6.325 3.684 7.363 C 3.376 8.178 3.301 9.008 3.242 9.865 C 3.152 11.187 3.29 12.499 3.55 13.798 C 3.709 14.593 3.899 15.385 4.121 16.165 C 4.233 16.558 4.265 16.965 4.766 16.918 C 5.752 16.824 8.551 16.298 8.748 16.088 C 8.882 15.947 9.136 13.578 9.267 12.734 C 9.353 12.19 9.963 10.452 9.911 9.91 C 9.758 8.298 9.488 6.149 7.804 5.382 C 7.529 5.258 7.252 5.2 6.954 5.162 C 6.624 5.118 6.258 5.097 5.928 5.149" transform="matrix(0.994946956635, -0.100400000811, 0.100400000811, 0.994946956635, -1.073248134944, 0.714741761755)"/>
  <path style="fill: rgb(2, 2, 2); stroke: none;" d="M 14.703 13.466 C 14.552 13.549 14.507 13.758 14.461 13.911 C 14.341 14.309 14.259 14.712 14.166 15.117 C 13.989 15.89 13.781 16.858 14.093 17.619 C 14.424 18.431 15.302 18.602 16.083 18.602 C 16.494 18.602 16.83 18.589 17.2 18.389 C 18.195 17.847 18.601 16.466 18.834 15.429 C 18.893 15.164 19.124 14.586 18.94 14.338 C 18.829 14.187 18.486 14.178 18.316 14.14 C 17.724 14.004 17.126 13.878 16.529 13.758 C 16.096 13.672 15.668 13.572 15.233 13.491 C 15.078 13.462 14.851 13.385 14.703 13.466 Z" transform="matrix(1, 0, 0, 1, 0, 1.7763568394002505e-15)"/>
  <path style="fill: rgb(2, 2, 2); stroke: none;" d="M 9.623 17.585 C 8.652 17.723 7.671 17.94 6.72 18.174 C 6.463 18.238 5.908 18.249 5.744 18.483 C 5.654 18.612 5.7 18.81 5.728 18.951 C 5.792 19.298 5.887 19.637 5.977 19.979 C 6.256 21.054 6.784 22.372 7.97 22.691 C 8.359 22.796 8.783 22.753 9.176 22.691 C 9.385 22.659 9.607 22.594 9.803 22.511 C 11.075 21.961 10.737 20.267 10.529 19.174 C 10.457 18.801 10.36 18.421 10.248 18.058 C 10.205 17.92 10.167 17.735 10.052 17.638 C 9.935 17.54 9.762 17.565 9.623 17.585" transform="matrix(0.994946956635, -0.100400000811, 0.100400000811, 0.994946956635, -1.982633332735, 0.926264921148)"/>
  <path style="fill: rgb(2, 2, 2); stroke: none;" d="M 16.931 0.883 C 16.55 0.935 16.158 1.042 15.814 1.22 C 14.207 2.057 13.917 4.349 13.847 5.958 C 13.823 6.501 13.943 7.158 14.06 7.697 C 14.222 8.45 14.418 9.035 14.678 9.755 C 14.829 10.176 14.916 10.648 14.921 11.096 C 14.923 11.318 14.86 11.659 15.033 11.832 C 15.248 12.049 15.754 12.051 16.038 12.118 C 16.688 12.272 17.351 12.377 18.004 12.521 C 18.373 12.601 18.872 12.757 19.25 12.698 C 19.525 12.653 19.581 12.164 19.644 11.945 C 19.873 11.148 20.05 10.342 20.222 9.532 C 20.668 7.432 20.808 5.105 20.056 3.053 C 19.562 1.706 18.446 0.676 16.931 0.883" transform="matrix(1, 0, 0, 1, 0, 1.7763568394002505e-15)"/>
</svg>
