<?xml version="1.0" encoding="utf-8"?>
<svg viewBox="0 0 24 24" xmlns="http://www.w3.org/2000/svg">
  <path d="M 4.276 10.815 C 4.76 10.815 5.129 11.212 5.384 12.008 C 5.868 13.514 6.217 14.268 6.428 14.268 C 6.6 14.268 6.771 14.137 6.94 13.882 C 10.436 8.753 13.669 5.102 16.638 2.929 C 17.902 2.004 19.132 1.545 20.323 1.545 C 21.902 1.545 22.846 1.594 23.159 1.694 C 23.303 1.722 23.372 1.877 23.372 2.162 C 23.372 2.373 23.232 2.65 22.946 2.993 C 14.946 12.157 10.187 18.124 8.667 20.895 C 8.142 21.846 6.935 22.323 5.043 22.323 C 4.419 22.323 3.765 22.159 3.084 21.833 C 2.801 21.675 2.303 20.722 1.591 18.977 C 0.696 16.76 0.248 14.822 0.248 13.159 C 0.248 12.547 0.683 12.043 1.549 11.647 C 2.771 11.093 3.68 10.815 4.276 10.815 Z" style=""/>
</svg>
